<?xml version="1.0" encoding="UTF-8"?>
<svg width="415px" height="415px" viewBox="0 0 415 415" version="1.1" xmlns="http://www.w3.org/2000/svg" xmlns:xlink="http://www.w3.org/1999/xlink">
    <!-- Generator: Sketch 40.3 (33839) - http://www.bohemiancoding.com/sketch -->
    <title>Fill 1</title>
    <desc>Created with Sketch.</desc>
    <defs></defs>
    <g id="Page-1" stroke="none" stroke-width="1" fill="none" fill-rule="evenodd">
        <g id="Symbol_black_flat" fill="#FFFFFF">
            <path d="M352.547,345.303 L352.547,70.641 C386.271,106.355 407.046,154.437 407.217,207.317 C407.39,260.665 386.568,309.273 352.547,345.303 L352.547,345.303 Z M207.677,408.155 C154.126,408.328 105.353,387.349 69.281,353.098 L344.766,353.098 C309.01,387.051 260.761,407.982 207.677,408.155 L207.677,408.155 Z M6.846,208.617 C6.668,154.9 27.78,105.993 62.219,69.889 L62.219,346.047 C28.076,310.258 7.015,261.868 6.846,208.617 L6.846,208.617 Z M206.38,7.776 C259.897,7.602 308.646,28.556 344.711,62.771 L69.362,62.771 C105.111,28.856 153.332,7.95 206.38,7.776 L206.38,7.776 Z M206.954,280.275 L207.143,280.285 L207.326,280.275 C244.001,278.339 288.453,300.543 339.5,346.322 L74.771,346.322 C125.827,300.546 170.239,278.306 206.954,280.275 L206.954,280.275 Z M207.211,135.638 L207.028,135.632 L206.839,135.638 C170.15,137.578 125.687,115.358 74.608,69.548 L339.446,69.548 C288.368,115.356 243.938,137.612 207.211,135.638 L207.211,135.638 Z M280.037,208.188 L280.051,208.002 L280.037,207.817 C278.109,171.224 300.207,126.896 345.77,75.992 L345.77,340.014 C300.21,289.109 278.075,244.817 280.037,208.188 L280.037,208.188 Z M141.851,208.222 C141.932,206.644 141.972,205.076 141.972,203.499 C141.967,163.298 116.216,122.926 95.012,95.933 C123.062,117.934 165.409,144.696 207.028,142.557 C208.603,142.638 210.17,142.679 211.752,142.679 C252.809,142.674 294.041,115.816 321.021,94.372 C298.795,122.395 270.94,165.576 273.118,208.002 C273.037,209.58 273.004,211.148 273.004,212.726 C273.004,253.358 299.311,294.161 320.642,321.154 C292.615,298.945 249.503,271.182 207.143,273.356 C205.562,273.275 203.994,273.238 202.42,273.238 C162.734,273.24 122.881,298.336 95.898,319.38 C117.767,291.328 143.965,249.416 141.851,208.222 L141.851,208.222 Z M134.931,208.036 L134.925,208.222 L134.931,208.408 C136.869,245.054 114.697,289.46 68.997,340.463 L68.997,75.974 C114.698,126.98 136.903,171.351 134.931,208.036 L134.931,208.036 Z M206.359,0.931 C92.2,1.306 -0.371,94.482 0.001,208.641 C0.373,322.793 93.552,415.364 207.697,414.999 C321.856,414.62 414.427,321.449 414.056,207.293 C413.69,93.137 320.512,0.566 206.359,0.931 L206.359,0.931 Z" id="Fill-1"></path>
        </g>
    </g>
</svg>